<svg width="21" height="21" viewBox="0 0 21 21" fill="none" xmlns="http://www.w3.org/2000/svg">
<path d="M19.9477 6.7C20 7.75014 20 8.9994 20 10.5C20 14.9783 20 17.2175 18.6088 18.6088C17.2175 20 14.9783 20 10.5 20C6.02166 20 3.78249 20 2.39124 18.6088C1 17.2175 1 14.9783 1 10.5C1 6.02166 1 3.78249 2.39124 2.39124C3.78249 1 6.02166 1 10.5 1C11.5719 1 12.5156 1 13.35 1.01908" stroke="#7D7D7D" stroke-width="1.5" stroke-linecap="round"/>
<path d="M6.5 10C6.5 10 8 10 10 13.5C10 13.5 15.0588 4.33333 20 2.5" stroke="#7D7D7D" stroke-width="1.5" stroke-linecap="round" stroke-linejoin="round"/>
</svg>
