<svg width="20" height="20" viewBox="0 0 20 20" fill="none" xmlns="http://www.w3.org/2000/svg">
<path d="M11.35 13.1501C11.35 12.3016 11.35 11.8773 11.6136 11.6137C11.8772 11.3501 12.3015 11.3501 13.15 11.3501H17.2C18.0485 11.3501 18.4728 11.3501 18.7364 11.6137C19 11.8773 19 12.3016 19 13.1501V17.2001C19 18.0486 19 18.4729 18.7364 18.7365C18.4728 19.0001 18.0485 19.0001 17.2 19.0001H13.15C12.3015 19.0001 11.8772 19.0001 11.6136 18.7365C11.35 18.4729 11.35 18.0486 11.35 17.2001V13.1501Z" stroke="#7D7D7D" stroke-linecap="round" stroke-linejoin="round"/>
<path d="M1 2.8C1 1.95147 1 1.52721 1.2636 1.2636C1.52721 1 1.95147 1 2.8 1H6.85C7.69853 1 8.12279 1 8.38639 1.2636C8.65 1.52721 8.65 1.95147 8.65 2.8V6.85C8.65 7.69853 8.65 8.12279 8.38639 8.38639C8.12279 8.65 7.69853 8.65 6.85 8.65H2.8C1.95147 8.65 1.52721 8.65 1.2636 8.38639C1 8.12279 1 7.69853 1 6.85V2.8Z" stroke="#7D7D7D" stroke-linecap="round" stroke-linejoin="round"/>
<path d="M1 13.1501C1 12.3016 1 11.8773 1.2636 11.6137C1.52721 11.3501 1.95147 11.3501 2.8 11.3501H6.85C7.69853 11.3501 8.12279 11.3501 8.38639 11.6137C8.65 11.8773 8.65 12.3016 8.65 13.1501V17.2001C8.65 18.0486 8.65 18.4729 8.38639 18.7365C8.12279 19.0001 7.69853 19.0001 6.85 19.0001H2.8C1.95147 19.0001 1.52721 19.0001 1.2636 18.7365C1 18.4729 1 18.0486 1 17.2001V13.1501Z" stroke="#7D7D7D" stroke-linecap="round" stroke-linejoin="round"/>
<path d="M11.35 2.8C11.35 1.95147 11.35 1.52721 11.6136 1.2636C11.8772 1 12.3015 1 13.15 1H17.2C18.0485 1 18.4728 1 18.7364 1.2636C19 1.52721 19 1.95147 19 2.8V6.85C19 7.69853 19 8.12279 18.7364 8.38639C18.4728 8.65 18.0485 8.65 17.2 8.65H13.15C12.3015 8.65 11.8772 8.65 11.6136 8.38639C11.35 8.12279 11.35 7.69853 11.35 6.85V2.8Z" stroke="#7D7D7D" stroke-linecap="round" stroke-linejoin="round"/>
</svg>
