<svg width="24" height="24" viewBox="0 0 24 24" fill="none" xmlns="http://www.w3.org/2000/svg">
<path d="M23.7708 9.6498H22.8042V9.6H12.0042V14.4H18.786C17.7966 17.1942 15.138 19.2 12.0042 19.2C8.02796 19.2 4.80416 15.9762 4.80416 12C4.80416 8.0238 8.02796 4.8 12.0042 4.8C13.8396 4.8 15.5094 5.4924 16.7808 6.6234L20.175 3.2292C18.0318 1.2318 15.165 0 12.0042 0C5.37716 0 0.00415039 5.373 0.00415039 12C0.00415039 18.627 5.37716 24 12.0042 24C18.6312 24 24.0042 18.627 24.0042 12C24.0042 11.1954 23.9214 10.41 23.7708 9.6498Z" fill="#FFC107"/>
<path d="M1.3877 6.4146L5.3303 9.306C6.3971 6.6648 8.9807 4.8 12.0041 4.8C13.8395 4.8 15.5093 5.4924 16.7807 6.6234L20.1749 3.2292C18.0317 1.2318 15.1649 0 12.0041 0C7.3949 0 3.3977 2.6022 1.3877 6.4146Z" fill="#FF3D00"/>
<path d="M12.0043 24.0002C15.1039 24.0002 17.9203 22.814 20.0497 20.885L16.3357 17.7422C15.1309 18.6548 13.6333 19.2002 12.0043 19.2002C8.8831 19.2002 6.23289 17.21 5.23449 14.4326L1.32129 17.4476C3.30729 21.3338 7.3405 24.0002 12.0043 24.0002Z" fill="#4CAF50"/>
<path d="M23.7708 9.64941H22.8042V9.59961H12.0042V14.3996H18.786C18.3108 15.7418 17.4474 16.8992 16.3338 17.7422L16.3356 17.741L20.0496 20.8838C19.7868 21.1226 24.0042 17.9996 24.0042 11.9996C24.0042 11.195 23.9214 10.4096 23.7708 9.64941Z" fill="#1976D2"/>
</svg>
