<svg width="290" height="285" viewBox="0 0 290 285" fill="none" xmlns="http://www.w3.org/2000/svg">
<path d="M142.369 115.247C147.571 114.631 154.918 116.754 159.664 119.515C164.418 122.283 168.656 126.992 170.866 131.84C173.076 136.68 173.779 143.085 172.931 148.57C172.091 154.056 169.185 160.57 165.802 164.729C162.425 168.888 157.817 171.902 152.636 173.525C147.455 175.141 139.891 175.894 134.724 174.452C129.558 173.018 125.167 169.04 121.624 164.895C118.088 160.751 114.509 154.853 113.487 149.57C112.473 144.288 113.255 138.18 115.509 133.202C117.769 128.224 122.16 122.623 127.022 119.703C131.884 116.79 141.622 116.327 144.695 115.696C147.767 115.066 145.426 115.406 145.463 115.906M146.093 114.551C151.245 114.522 159.106 118.08 163.2 121.645C167.294 125.203 169.084 130.826 170.664 135.898C172.236 140.97 173.931 146.781 172.656 152.07C171.381 157.36 167.106 164.055 163.026 167.649C158.947 171.243 153.317 172.699 148.18 173.648C143.043 174.597 137.13 175.409 132.196 173.344C127.261 171.272 121.588 165.678 118.573 161.229C115.559 156.787 114.226 152.07 114.096 146.665C113.965 141.259 115.088 133.441 117.784 128.797C120.472 124.159 125.442 121.232 130.232 118.819C135.021 116.406 143.658 114.791 146.521 114.334C149.383 113.878 147.513 115.421 147.412 116.073" fill="#B2F2BB"/>
<path d="M135.289 115.747C140.137 114.124 146.868 115.522 152.15 117.305C157.44 119.08 163.657 122.312 167.019 126.42C170.374 130.521 171.765 136.702 172.316 141.933C172.866 147.158 172.497 152.911 170.323 157.802C168.156 162.685 164.055 168.373 159.302 171.25C154.556 174.126 147.296 175.315 141.832 175.054C136.362 174.793 130.79 172.895 126.515 169.699C122.247 166.504 118.363 160.743 116.19 155.896C114.016 151.041 112.654 145.759 113.472 140.593C114.291 135.427 116.501 129.116 121.109 124.891C125.725 120.667 136.978 116.682 141.151 115.247C145.325 113.812 146.216 115.885 146.136 116.276M152.919 116.008C157.875 117.145 163.237 121.283 166.425 125.826C169.613 130.376 171.33 137.716 172.04 143.281C172.75 148.853 173.12 154.773 170.685 159.251C168.251 163.736 162.229 167.497 157.425 170.17C152.614 172.844 147.028 175.467 141.832 175.293C136.637 175.119 130.529 172.185 126.261 169.141C121.986 166.098 118.356 162.011 116.197 157.041C114.038 152.07 112.335 144.636 113.32 139.303C114.298 133.97 118.385 129.065 122.095 125.036C125.812 121.015 130.515 116.66 135.608 115.16C140.702 113.66 149.672 115.848 152.65 116.059C155.628 116.269 153.73 115.863 153.469 116.428" stroke="#1E1E1E" stroke-linecap="round"/>
<path d="M95.0325 2.49322C100.076 3.19607 106.264 6.54363 110.082 10.2825C113.901 14.0285 116.734 19.76 117.937 24.9335C119.139 30.107 119.19 36.15 117.292 41.3307C115.393 46.5115 110.93 52.7574 106.553 56.018C102.177 59.2786 96.3368 60.764 91.0184 60.8944C85.6999 61.0248 79.3381 59.2641 74.6429 56.8005C69.9476 54.3369 65.3827 50.801 62.8612 46.1202C60.3396 41.4394 59.0354 34.2298 59.5064 28.7158C59.9701 23.2017 62.5931 17.2312 65.6653 13.0214C68.7448 8.80432 72.73 5.12345 77.9542 3.44242C83.1784 1.76864 93.5037 2.92073 97.0034 2.94971C100.503 2.97869 99.0612 3.0584 98.9598 3.61632M91.4893 2.07297C96.6556 2.06572 102.691 4.28294 106.85 7.46384C111.01 10.6448 114.531 16.2385 116.437 21.1439C118.35 26.0493 119.328 31.6938 118.299 36.8963C117.27 42.0988 114.075 48.5258 110.263 52.3661C106.452 56.1991 100.793 58.7931 95.4456 59.9162C90.0981 61.0321 83.1277 60.9379 78.1571 59.0902C73.1937 57.2353 68.8824 53.0037 65.6291 48.8084C62.3685 44.6131 59.231 39.099 58.6151 33.9038C57.9992 28.7085 59.3687 22.5279 61.9337 17.6442C64.4915 12.7605 69.2592 7.33342 73.9762 4.59451C78.6933 1.84835 87.6346 1.43534 90.2358 1.19623C92.8371 0.949868 89.6127 2.68161 89.5837 3.14535" fill="#A5D8FF"/>
<path d="M84.8527 1.5221C89.9827 0.196115 97.2285 1.55833 101.982 3.78279C106.735 6.01449 110.619 10.3765 113.358 14.8834C116.089 19.3975 118.22 25.5129 118.386 30.8604C118.553 36.2078 117.212 42.3522 114.365 46.9605C111.517 51.5689 106.293 56.2859 101.301 58.5176C96.3083 60.7493 89.6349 61.0464 84.418 60.3435C79.1937 59.6479 73.9188 57.6916 69.9771 54.3223C66.0426 50.9602 62.3762 45.4462 60.7894 40.164C59.2098 34.8818 58.9852 27.7664 60.4778 22.6291C61.9705 17.4991 65.1296 12.7458 69.738 9.34032C74.3463 5.94204 84.4687 3.47122 88.1206 2.23219C91.7725 1.0004 91.7725 1.55833 91.6493 1.93511M98.598 3.52918C103.598 5.06529 108.851 9.26061 112.336 13.4922C115.829 17.7165 119.06 23.4624 119.531 28.8895C120.002 34.3238 117.937 41.3233 115.169 46.0765C112.401 50.8298 107.597 54.815 102.924 57.409C98.243 60.0102 92.5333 62.155 87.1134 61.6695C81.6863 61.1768 74.6072 57.793 70.3756 54.4817C66.1513 51.1703 63.695 46.4968 61.7386 41.816C59.7822 37.1425 57.4853 31.5704 58.6374 26.4187C59.7822 21.2742 64.7311 14.8689 68.6366 10.9127C72.5421 6.9492 76.8606 3.86249 82.0703 2.65244C87.2873 1.44964 97.1706 3.29732 99.924 3.66685C102.685 4.03639 98.8806 4.50737 98.6342 4.86241" stroke="#1E1E1E" stroke-linecap="round"/>
<path d="M246.028 47.9874C250.282 45.4659 256.317 44.2051 261.498 44.6688C266.679 45.1326 272.867 47.2918 277.113 50.7626C281.352 54.2333 285.293 60.4212 286.96 65.4933C288.626 70.5653 288.496 76.0504 287.126 81.1877C285.757 86.325 282.533 92.4839 278.736 96.3169C274.946 100.143 269.765 103.287 264.382 104.164C258.991 105.048 251.571 103.751 246.412 101.614C241.246 99.4689 236.304 95.8604 233.392 91.3318C230.471 86.8032 229.073 79.9704 228.921 74.4274C228.776 68.8843 229.559 62.7834 232.486 58.0881C235.413 53.3855 243.985 48.0237 246.499 46.2339C249.014 44.4442 247.383 46.6832 247.564 47.3425M256.209 44.5964C261.433 43.995 269.005 46.2267 273.852 48.6903C278.692 51.1538 282.822 54.8637 285.257 59.3778C287.699 63.8992 288.902 70.2755 288.474 75.7823C288.039 81.2964 285.982 88.0712 282.678 92.4332C279.366 96.7952 273.656 99.9978 268.613 101.954C263.57 103.918 257.564 105.316 252.434 104.179C247.303 103.048 241.775 98.9689 237.84 95.1431C233.913 91.3246 230.073 86.3974 228.856 81.2529C227.638 76.1084 228.392 69.5582 230.537 64.276C232.681 58.9938 237.246 52.7117 241.746 49.5598C246.238 46.4151 255.143 46.2557 257.506 45.3789C259.86 44.5022 255.832 43.8573 255.897 44.3066" fill="#A5D8FF"/>
<path d="M250.774 45.1326C255.527 43.4951 262.411 44.5385 267.454 46.1833C272.49 47.8353 277.439 50.9293 281.018 55.0159C284.59 59.1025 288.221 65.3267 288.916 70.7103C289.612 76.0939 287.779 82.463 285.199 87.3104C282.62 92.1506 277.895 96.9474 273.439 99.7732C268.983 102.592 263.78 104.316 258.455 104.237C253.122 104.164 246.079 102.505 241.471 99.3167C236.855 96.1286 232.826 90.245 230.783 85.1294C228.74 80.0139 228.247 73.8767 229.225 68.6235C230.203 63.3775 232.631 57.6751 236.652 53.6392C240.666 49.6033 249.869 45.85 253.325 44.4153C256.781 42.9734 257.18 44.553 257.382 45.0167M273.048 47.6324C277.794 49.6033 282.938 55.0449 285.46 59.7402C287.981 64.4427 288.59 70.5654 288.177 75.8331C287.757 81.108 286.199 87.18 282.96 91.3753C279.728 95.5779 273.917 99.0196 268.758 101.034C263.599 103.056 257.353 104.534 252.013 103.483C246.666 102.432 240.5 98.6139 236.703 94.7229C232.913 90.8319 230.276 85.2816 229.254 80.1226C228.233 74.9708 228.834 68.7684 230.566 63.7761C232.297 58.7837 235.413 53.545 239.63 50.1757C243.847 46.8064 250.187 44.0023 255.861 43.5748C261.534 43.1545 271.005 46.9006 273.671 47.6469C276.337 48.4005 272.41 47.473 271.86 48.0744" stroke="#1E1E1E" stroke-linecap="round"/>
<path d="M24.4639 224.41C29.3548 222.917 35.8905 224.467 41.006 226.221C46.1288 227.974 51.7588 230.844 55.1861 234.916C58.6133 238.988 61.0697 245.335 61.5696 250.654C62.0696 255.972 60.7146 261.87 58.1931 266.812C55.6643 271.761 51.1357 277.594 46.4186 280.333C41.7016 283.072 35.2891 283.55 29.8765 283.245C24.4639 282.934 18.3701 281.383 13.9575 278.47C9.54476 275.565 5.49435 270.775 3.40032 265.783C1.30628 260.791 0.429538 253.849 1.38598 248.516C2.34243 243.183 4.92918 237.807 9.15348 233.793C13.3705 229.779 23.0582 225.837 26.7173 224.431C30.3764 223.033 30.9126 224.808 31.1228 225.373M39.8032 225.112C44.5275 226.018 50.1285 229.982 53.8021 234.054C57.4757 238.119 61.2798 244.169 61.8377 249.516C62.3956 254.864 59.6205 261.262 57.1642 266.138C54.7078 271.015 51.4472 275.956 47.0925 278.768C42.7378 281.572 36.4412 282.847 31.0358 282.977C25.6304 283.115 19.1744 282.55 14.6675 279.557C10.1607 276.565 6.16097 270.022 3.97998 265.037C1.80624 260.052 0.5817 254.965 1.59611 249.625C2.61052 244.285 6.47978 237.046 10.0665 233.003C13.6459 228.96 17.8412 226.663 23.0727 225.373C28.3041 224.083 38.4628 225.156 41.4553 225.257C44.4478 225.351 41.4987 225.496 41.035 225.967" fill="#B2F2BB"/>
<path d="M42.8391 226.489C47.9112 228.213 53.2224 233.089 56.3526 237.379C59.49 241.668 61.4898 247.038 61.6565 252.233C61.8304 257.421 60.1928 263.87 57.3887 268.529C54.5846 273.195 49.6937 277.68 44.839 280.202C39.9843 282.723 33.5935 284.1 28.2533 283.643C22.9132 283.187 16.9064 280.926 12.7908 277.47C8.67519 274.014 5.39285 267.898 3.5669 262.891C1.74096 257.892 0.675829 252.581 1.83516 247.443C2.99449 242.299 6.47247 235.734 10.5156 232.046C14.5588 228.358 20.3264 226.141 26.0941 225.329C31.8618 224.518 41.6871 226.655 45.1361 227.177C48.5778 227.699 47.0562 227.938 46.7664 228.452M30.6517 223.286C35.9774 222.829 43.5565 225.047 48.201 227.894C52.8384 230.749 56.3598 235.307 58.5118 240.393C60.6638 245.473 61.8449 253.073 61.0986 258.399C60.3595 263.725 57.4249 268.181 54.0629 272.333C50.7008 276.485 46.0201 281.731 40.919 283.317C35.818 284.897 28.7606 283.455 23.4494 281.825C18.1455 280.202 12.5445 277.412 9.08096 273.557C5.61022 269.695 3.3133 264.159 2.66842 258.689C2.02355 253.218 3.10317 245.82 5.20445 240.719C7.31298 235.625 10.8924 230.749 15.3051 228.119C19.725 225.489 28.9634 225.561 31.6951 224.938C34.4268 224.315 31.84 224.192 31.6951 224.387" stroke="#1E1E1E" stroke-linecap="round"/>
<path d="M249.17 205.912C254.387 206.702 260.974 210.528 264.597 214.462C268.22 218.397 270.009 224.193 270.901 229.504C271.799 234.815 271.864 241.366 269.973 246.344C268.089 251.314 264.01 256.111 259.583 259.357C255.156 262.61 248.815 265.61 243.403 265.835C237.99 266.052 231.788 263.436 227.114 260.676C222.441 257.908 217.702 254.082 215.362 249.256C213.021 244.431 212.543 237.105 213.079 231.722C213.615 226.331 215.188 221.048 218.579 216.926C221.97 212.796 227.035 208.274 233.418 206.963C239.802 205.651 252.214 207.955 256.873 209.064C261.525 210.165 261.713 213.114 261.351 213.593M243.584 205.666C248.866 205.586 254.829 208.557 259.249 211.491C263.677 214.426 268.111 218.425 270.118 223.273C272.118 228.113 272.219 235.011 271.263 240.554C270.314 246.104 267.894 252.604 264.408 256.553C260.93 260.495 255.489 262.915 250.381 264.233C245.272 265.545 239.142 266.183 233.759 264.436C228.382 262.697 221.767 257.879 218.093 253.792C214.42 249.698 212.347 245.01 211.739 239.902C211.137 234.794 212.007 228.07 214.456 223.128C216.905 218.194 221.658 213.056 226.433 210.281C231.208 207.506 240.265 206.992 243.099 206.492C245.932 205.999 243.323 207.021 243.439 207.296" fill="#A5D8FF"/>
<path d="M231.324 207.325C235.947 204.955 242.301 204.318 247.526 205.397C252.743 206.477 258.706 210.158 262.648 213.81C266.589 217.469 269.734 222.063 271.169 227.316C272.596 232.569 272.886 240.192 271.234 245.322C269.582 250.444 265.517 254.799 261.242 258.082C256.967 261.371 250.895 264.32 245.605 265.03C240.309 265.74 234.201 264.835 229.491 262.335C224.774 259.835 220.136 254.777 217.318 250.031C214.499 245.285 212.449 239.032 212.565 233.866C212.68 228.693 214.586 223.512 218.028 219.012C221.462 214.52 230.375 208.998 233.186 206.897C235.99 204.796 234.751 205.926 234.889 206.412M235.476 205.549C240.381 204.129 246.75 206.151 251.888 207.919C257.018 209.68 262.807 212.129 266.278 216.136C269.741 220.142 272.198 226.664 272.676 231.96C273.154 237.264 271.719 242.923 269.147 247.945C266.582 252.973 262.017 259.357 257.257 262.11C252.503 264.856 246.033 264.798 240.599 264.443C235.171 264.096 229.099 262.813 224.68 259.987C220.26 257.169 216.209 252.524 214.079 247.517C211.956 242.518 210.97 235.337 211.912 229.982C212.862 224.62 216.05 219.295 219.752 215.382C223.462 211.462 231.425 207.723 234.157 206.491C236.881 205.26 235.78 207.39 236.113 207.984" stroke="#1E1E1E" stroke-linecap="round"/>
<path d="M106.391 63.053C110.456 71.6175 126.237 105.253 130.411 113.65M105.362 62.6689C109.304 71.0234 125.208 104.303 129.512 112.542" stroke="#1E1E1E" stroke-linecap="round"/>
<path d="M116.39 100.05C121.064 102.688 124.687 107.687 129.512 112.542ZM116.39 100.05C121.064 105.253 125.455 109.209 129.512 112.542Z" stroke="#1E1E1E" stroke-linecap="round"/>
<path d="M127.491 94.5361C129.215 98.6445 129.896 105.101 129.512 112.542ZM127.491 94.5361C128.02 101.796 128.295 107.796 129.512 112.542Z" stroke="#1E1E1E" stroke-linecap="round"/>
<path d="M119.131 170.877C108.646 180.159 65.2803 217.678 54.8174 227.061M118.443 169.993C108.277 179.355 66.7947 218.236 56.426 227.894" stroke="#1E1E1E" stroke-linecap="round"/>
<path d="M64.6358 211.744C62.462 214.258 60.1579 220.373 56.4263 227.895ZM64.6358 211.744C62.2591 216.526 60.3173 219.591 56.4263 227.895Z" stroke="#1E1E1E" stroke-linecap="round"/>
<path d="M73.0916 220.801C69.0267 221.373 64.8459 225.489 56.4263 227.894ZM73.0916 220.801C68.6572 223.257 64.5633 224.032 56.4263 227.894Z" stroke="#1E1E1E" stroke-linecap="round"/>
<path d="M254.041 108.827C252.469 123.449 246.846 183.118 245.31 197.893M253.049 110.291C251.274 124.587 245.593 181.807 244.513 196.487" stroke="#1E1E1E" stroke-linecap="round"/>
<path d="M239.847 178.981C240.434 185.538 244.049 191.661 244.513 196.487ZM239.847 178.981C240.781 183.365 242.926 188.77 244.513 196.487Z" stroke="#1E1E1E" stroke-linecap="round"/>
<path d="M252.186 180.075C247.882 186.212 246.614 191.908 244.513 196.487ZM252.186 180.075C249.687 184.133 248.382 189.227 244.513 196.487Z" stroke="#1E1E1E" stroke-linecap="round"/>
<path d="M208.705 245.088C185.17 246.16 91.6849 251.051 68.1795 252.066M210.132 246.776C186.518 247.617 91.7066 250.08 67.8896 250.971" stroke="#1E1E1E" stroke-linecap="round"/>
<path d="M84.7144 244.254C78.3308 247.747 74.6355 249.196 67.8896 250.971ZM84.7144 244.254C79.5264 246.957 74.534 247.529 67.8896 250.971Z" stroke="#1E1E1E" stroke-linecap="round"/>
<path d="M85.0984 256.638C78.5627 255.899 74.7297 253.109 67.8896 250.972ZM85.0984 256.638C79.8017 255.652 74.7007 252.544 67.8896 250.972Z" stroke="#1E1E1E" stroke-linecap="round"/>
</svg>
