<svg width="50" height="50" viewBox="0 0 50 50" fill="none" xmlns="http://www.w3.org/2000/svg">
<g clip-path="url(#clip0_11_77)">
<path d="M15.6827 8.85015C10.2377 11.9188 8.30704 18.8527 11.3829 24.2937C13.4276 27.9107 17.1626 29.9714 21.0363 30.046C21.7241 30.0593 22.3519 30.4413 22.6904 31.0402L24.0483 33.4422C24.1211 33.3484 24.2133 33.267 24.3232 33.2049L32.0679 28.8269C32.1779 28.7647 32.295 28.7277 32.413 28.7137L31.0552 26.3116C30.7126 25.7057 30.7216 24.9658 31.0678 24.3619C32.9905 21.0075 33.1463 16.7545 31.1056 13.1445C28.0293 7.70243 21.127 5.78189 15.6827 8.85015Z" fill="#FFE181"/>
<path d="M25.2967 29.5669C24.9582 28.968 24.3304 28.5859 23.6425 28.5727C19.7689 28.498 16.0339 26.4373 13.9892 22.8203C11.1651 17.8247 12.562 11.5711 17.0239 8.20554C16.5693 8.38872 16.1213 8.60306 15.6828 8.85012C10.2377 11.9188 8.307 18.8526 11.3829 24.2937C13.4276 27.9107 17.1626 29.9714 21.0363 30.046C21.7241 30.0592 22.3519 30.4414 22.6904 31.0402L24.0483 33.4422C24.1211 33.3484 24.2133 33.267 24.3232 33.2049L26.6195 31.9068L25.2967 29.5669Z" fill="#FEC458"/>
<path d="M29.698 30.7906C29.4369 30.9383 29.1055 30.8462 28.9578 30.5851L26.5653 26.3527C26.3248 25.9273 26.2309 25.4268 26.3005 24.9432L26.482 23.6845C26.5175 23.4375 26.4696 23.1819 26.3468 22.9647L23.8499 18.5478C23.7023 18.2866 23.7943 17.9552 24.0555 17.8076C24.3167 17.6599 24.6481 17.752 24.7957 18.0131L27.2926 22.43C27.533 22.8554 27.627 23.3559 27.5573 23.8395L27.3759 25.0982C27.3403 25.3452 27.3883 25.6008 27.5111 25.818L29.9036 30.0504C30.0513 30.3116 29.9592 30.643 29.698 30.7906Z" fill="#FFB640"/>
<path d="M27.2277 32.1873C26.9666 32.3349 26.6352 32.2429 26.4875 31.9817L24.095 27.7493C23.9722 27.5321 23.7779 27.3592 23.548 27.2623L22.3759 26.7687C21.9257 26.5791 21.5452 26.2404 21.3048 25.8151L18.8079 21.3982C18.6603 21.137 18.7523 20.8056 19.0135 20.658C19.2747 20.5103 19.6061 20.6024 19.7537 20.8635L22.2506 25.2804C22.3734 25.4976 22.5676 25.6705 22.7975 25.7674L23.9696 26.2609C24.4199 26.4506 24.8003 26.7893 25.0407 27.2146L27.4333 31.447C27.581 31.7082 27.4889 32.0396 27.2277 32.1873Z" fill="#FFB640"/>
<path d="M27.032 12.8995C25.4421 11.2817 23.2259 10.4303 20.9516 10.5638C20.6521 10.5813 20.3951 10.3528 20.3775 10.0534C20.3599 9.75388 20.5886 9.49681 20.8879 9.47922C23.4753 9.32738 25.9972 10.2965 27.8069 12.138C28.0172 12.352 28.0142 12.696 27.8002 12.9063C27.5864 13.1164 27.2424 13.1137 27.032 12.8995Z" fill="#FFEAC8"/>
<path d="M30.2002 39.0205L30.3961 39.367C30.9899 40.4173 32.3351 40.7909 33.3854 40.1972C34.4358 39.6034 34.8094 38.2582 34.2156 37.2078L34.0197 36.8614L30.2002 39.0205Z" fill="#8479C2"/>
<path d="M32.1057 38.4005L31.9098 38.0541L30.2002 39.0205L30.3961 39.367C30.9899 40.4173 32.3351 40.7909 33.3854 40.1972C33.6923 40.0237 33.9409 39.7859 34.125 39.5102C33.3228 39.5479 32.526 39.1441 32.1057 38.4005Z" fill="#6E60B8"/>
<path d="M25.3594 19.0106L19.3719 22.3953C19.1108 22.5429 18.7794 22.4509 18.6317 22.1897C18.4841 21.9285 18.5761 21.5971 18.8373 21.4495L24.8247 18.0648C25.0859 17.9172 25.4173 18.0092 25.565 18.2704C25.7126 18.5316 25.6206 18.863 25.3594 19.0106Z" fill="#FEC458"/>
<path d="M9.21355 25.8111L7.58667 26.7307C7.32549 26.8784 6.99408 26.7863 6.84643 26.5252C6.69879 26.264 6.79083 25.9326 7.05201 25.7849L8.6789 24.8652C8.94008 24.7176 9.27149 24.8096 9.41913 25.0708C9.56674 25.3319 9.47473 25.6634 9.21355 25.8111Z" fill="#FEC458"/>
<path d="M7.98133 22.5474L6.13395 22.83C5.8374 22.8753 5.56016 22.6717 5.5148 22.3751C5.46951 22.0785 5.67313 21.8015 5.96967 21.756L7.81705 21.4734C8.1136 21.4281 8.39084 21.6317 8.4362 21.9283C8.48151 22.2246 8.27815 22.5018 7.98133 22.5474Z" fill="#FEC458"/>
<path d="M9.71537 29.8056C9.48467 29.6139 9.45313 29.2713 9.6449 29.0406L10.8396 27.6035C11.0313 27.3729 11.3739 27.3412 11.6047 27.533C11.8354 27.7248 11.8669 28.0674 11.6751 28.2981L10.4804 29.7352C10.2886 29.9659 9.94616 29.9974 9.71537 29.8056Z" fill="#FEC458"/>
<path d="M35.151 11.1485L33.5241 12.0681C33.2629 12.2158 32.9315 12.1237 32.7839 11.8626C32.6362 11.6014 32.7283 11.27 32.9895 11.1223L34.6163 10.2027C34.8775 10.055 35.2089 10.147 35.3566 10.4082C35.5042 10.6693 35.4122 11.0008 35.151 11.1485Z" fill="#FEC458"/>
<path d="M30.5982 9.39985C30.3675 9.20807 30.336 8.86551 30.5277 8.63482L31.7225 7.19771C31.9142 6.96714 32.2568 6.93541 32.4875 7.12725C32.7182 7.31902 32.7498 7.66159 32.558 7.89228L31.3633 9.32942C31.1714 9.56012 30.829 9.59165 30.5982 9.39985Z" fill="#FEC458"/>
<path d="M36.2333 15.1774L34.386 15.4599C34.0894 15.5053 33.8122 15.3016 33.7668 15.0051C33.7215 14.7085 33.9251 14.4313 34.2217 14.3859L36.0691 14.1033C36.3656 14.058 36.6429 14.2617 36.6882 14.5582C36.7335 14.8546 36.5301 15.1318 36.2333 15.1774Z" fill="#FEC458"/>
<path d="M34.0384 33.7842L27.5542 37.4497C27.1016 37.7055 26.9416 38.2817 27.1974 38.7341L27.5923 39.4327C27.848 39.8851 28.4242 40.0452 28.8768 39.7893L35.3611 36.1238C35.8136 35.868 35.9736 35.2918 35.7178 34.8394L35.3229 34.1408C35.0672 33.6884 34.491 33.5283 34.0384 33.7842Z" fill="#EFECEF"/>
<path d="M34.6998 34.954L28.2155 38.6196C27.8449 38.829 27.3916 38.7593 27.0991 38.4788C27.1189 38.5662 27.1511 38.6523 27.1974 38.7342L27.5923 39.4327C27.8481 39.8852 28.4243 40.0452 28.8768 39.7894L35.3611 36.1238C35.8136 35.8681 35.9736 35.2919 35.7178 34.8394L35.323 34.1409C35.2766 34.0589 35.2196 33.9869 35.1549 33.9249C35.2443 34.3202 35.0703 34.7446 34.6998 34.954Z" fill="#E2DFE2"/>
<path d="M33.3638 31.1195L25.6191 35.4976C25.1666 35.7533 25.0066 36.3295 25.2624 36.782L25.6572 37.4805C25.913 37.933 26.4892 38.0931 26.9417 37.8373L34.6865 33.4592C35.139 33.2034 35.299 32.6272 35.0432 32.1747L34.6483 31.4762C34.3926 31.0237 33.8164 30.8637 33.3638 31.1195Z" fill="#EFECEF"/>
<path d="M34.0252 32.2894L26.2804 36.6675C25.9098 36.8769 25.4566 36.8072 25.164 36.5267C25.1838 36.6141 25.216 36.7001 25.2623 36.782L25.6572 37.4806C25.913 37.9331 26.4892 38.0931 26.9416 37.8373L34.6864 33.4593C35.1389 33.2035 35.299 32.6273 35.0432 32.1747L34.6483 31.4762C34.602 31.3943 34.5449 31.3223 34.4802 31.2603C34.5697 31.6556 34.3957 32.0799 34.0252 32.2894Z" fill="#E2DFE2"/>
<path d="M32.059 28.8114L24.3142 33.1895C23.8618 33.4452 23.7017 34.0214 23.9575 34.474L24.3524 35.1725C24.6082 35.6249 25.1844 35.785 25.6369 35.5292L33.3816 31.1511C33.8342 30.8953 33.9942 30.3191 33.7384 29.8666L33.3435 29.1681C33.0877 28.7156 32.5115 28.5556 32.059 28.8114Z" fill="#EFECEF"/>
<path d="M32.7203 29.9812L24.9756 34.3593C24.605 34.5688 24.1517 34.499 23.8592 34.2186C23.8789 34.306 23.9112 34.392 23.9575 34.4739L24.3524 35.1725C24.6081 35.6249 25.1843 35.7849 25.6368 35.5292L33.3816 31.1511C33.8341 30.8953 33.9941 30.3191 33.7383 29.8666L33.3435 29.1681C33.2971 29.0861 33.24 29.0142 33.1754 28.9522C33.2649 29.3474 33.0909 29.7718 32.7203 29.9812Z" fill="#E2DFE2"/>
</g>
<defs>
<clipPath id="clip0_11_77">
<rect width="36" height="36" fill="white" transform="translate(0 17.7158) rotate(-29.4792)"/>
</clipPath>
</defs>
</svg>
