<svg width="18" height="22" viewBox="0 0 18 22" fill="none" xmlns="http://www.w3.org/2000/svg">
<path d="M1.26781 17.8447C1.49269 19.515 2.87613 20.8235 4.55966 20.9009C5.97627 20.966 7.41531 21 9.00001 21C10.5847 21 12.0237 20.966 13.4403 20.9009C15.1239 20.8235 16.5073 19.515 16.7322 17.8447C16.8789 16.7547 17 15.6376 17 14.5C17 13.3624 16.8789 12.2453 16.7322 11.1553C16.5073 9.485 15.1239 8.17649 13.4403 8.09909C12.0237 8.03397 10.5847 8 9.00001 8C7.41531 8 5.97627 8.03397 4.55966 8.09909C2.87613 8.17649 1.49269 9.485 1.26781 11.1553C1.12105 12.2453 1 13.3624 1 14.5C1 15.6376 1.12105 16.7547 1.26781 17.8447Z" stroke="#AAAAAA" stroke-width="1.5"/>
<path d="M4.5 8V5.5C4.5 3.01472 6.51472 1 9 1C11.4853 1 13.5 3.01472 13.5 5.5V8" stroke="#AAAAAA" stroke-width="1.5" stroke-linecap="round" stroke-linejoin="round"/>
</svg>
