<svg width="13" height="14" viewBox="0 0 13 14" fill="none" xmlns="http://www.w3.org/2000/svg">
<path d="M12.8984 7.78959C12.5701 9.04305 11.0191 9.92878 7.91671 11.7003C4.91771 13.4128 3.41825 14.2691 2.20984 13.9249C1.71024 13.7826 1.25505 13.5124 0.887936 13.1401C1.66041e-07 12.2396 0 10.4931 0 6.99999C0 3.5069 1.66041e-07 1.76036 0.887936 0.859897C1.25505 0.487619 1.71024 0.217355 2.20984 0.0750588C3.41825 -0.269126 4.91771 0.587131 7.91671 2.29966C11.0191 4.07117 12.5701 4.95693 12.8984 6.21039C13.0339 6.72783 13.0339 7.27215 12.8984 7.78959Z" fill="#6A6A6A"/>
</svg>
