<svg width="304" height="285" viewBox="0 0 304 285" fill="none" xmlns="http://www.w3.org/2000/svg">
<path d="M161.089 1.71741C166.26 1.68006 172.416 4.56396 177.055 7.79154C181.695 11.0116 186.835 16.0174 188.927 21.053C191.019 26.0812 190.743 32.499 189.615 37.9903C188.494 43.4742 185.909 49.9593 182.181 53.9937C178.453 58.0207 172.804 61.0167 167.246 62.1673C161.695 63.3179 154.208 62.6305 148.852 60.8972C143.502 59.1638 138.31 56.0782 135.142 51.7673C131.966 47.4564 130.181 40.7248 129.822 35.0392C129.464 29.3461 130.599 22.5398 132.975 17.6237C135.358 12.7076 138.795 8.04556 144.1 5.53522C149.404 3.03235 160.955 2.96511 164.803 2.58408C168.658 2.20304 167.38 2.8381 167.223 3.24902M160.088 2.60649C165.146 2.21799 170.727 4.12315 175.389 6.96223C180.059 9.80878 185.528 14.5306 188.091 19.6559C190.646 24.7737 191.744 32.1105 190.743 37.6989C189.742 43.2874 185.984 49.0104 182.091 53.1794C178.199 57.3409 172.565 61.3753 167.38 62.6903C162.188 64.0052 156.001 62.8023 150.966 61.0765C145.93 59.3432 140.895 56.3024 137.166 52.3277C133.431 48.3529 129.538 42.5851 128.582 37.2283C127.618 31.8639 128.911 25.3041 131.414 20.1565C133.924 15.0013 138.907 9.50245 143.622 6.3197C148.329 3.14442 157.003 1.61282 159.692 1.08983C162.374 0.559369 159.737 2.52431 159.737 3.16683" fill="#B2F2BB"/>
<path d="M153.917 2.71843C158.953 1.25407 165.879 2.10579 170.937 4.01843C175.995 5.9236 181.053 9.85347 184.273 14.1868C187.501 18.5201 189.981 24.3776 190.295 30.0034C190.609 35.6293 188.853 42.9586 186.148 47.9494C183.451 52.9402 178.901 57.52 174.09 59.9482C169.278 62.3838 162.831 63.0936 157.264 62.5631C151.698 62.0327 145.191 60.1275 140.671 56.7654C136.158 53.4034 131.937 47.6804 130.151 42.3833C128.366 37.0787 128.657 30.3621 129.957 24.9454C131.257 19.5213 133.633 13.7086 137.936 9.86842C142.247 6.02819 152.46 3.12188 155.785 1.88912C159.117 0.656366 157.907 2.00866 157.914 2.47188M165.483 2.7259C170.526 3.45808 176.391 7.21612 180.44 10.877C184.49 14.5379 188.502 19.3793 189.772 24.6914C191.042 30.0034 189.944 37.3626 188.068 42.7569C186.201 48.1436 182.921 53.7695 178.543 57.0344C174.164 60.2919 167.209 62.0327 161.8 62.3315C156.39 62.6304 150.996 61.3752 146.095 58.8126C141.186 56.2574 135.336 51.6775 132.363 46.9632C129.382 42.2488 127.686 35.9954 128.231 30.5339C128.777 25.0649 132.311 18.7966 135.643 14.1719C138.982 9.54715 143.271 4.6236 148.254 2.78567C153.23 0.947745 162.696 3.09199 165.505 3.15176C168.314 3.21153 165.274 2.83797 165.124 3.14429" stroke="#1E1E1E" stroke-linecap="round"/>
<path d="M105.993 101.662C111.223 102.006 118.298 104.934 122.721 108.536C127.137 112.144 130.828 117.942 132.516 123.299C134.205 128.648 134.451 135.417 132.837 140.662C131.231 145.899 127.002 151.01 122.863 154.73C118.724 158.444 113.464 161.94 108.003 162.964C102.534 163.98 95.369 163.113 90.0793 160.849C84.7822 158.578 79.373 154.095 76.25 149.351C73.127 144.607 71.2891 137.883 71.3414 132.384C71.3937 126.892 73.6201 120.975 76.5713 116.395C79.5224 111.808 83.1385 107.101 89.0558 104.882C94.9655 102.671 107.428 102.992 112.045 103.097C116.669 103.201 116.931 105.136 116.774 105.51M94.8086 103.395C99.9339 101.528 107.069 100.9 112.426 102.514C117.775 104.128 123.423 108.715 126.92 113.078C130.417 117.434 132.897 123.03 133.398 128.671C133.891 134.319 132.269 142.089 129.894 146.945C127.518 151.794 124.081 155.096 119.142 157.786C114.204 160.483 106.06 163.076 100.27 163.098C94.4799 163.121 88.8167 161.036 84.3937 157.913C79.9707 154.79 75.7569 149.56 73.7472 144.353C71.7374 139.145 71.0575 132.406 72.3276 126.653C73.5977 120.908 77.4678 113.863 81.3678 109.858C85.2678 105.853 93.3965 103.911 95.7126 102.618C98.0287 101.326 95.227 101.841 95.2419 102.118" fill="#A5D8FF"/>
<path d="M96.7138 102.484C101.832 100.833 108.556 100.937 113.621 102.797C118.679 104.658 123.678 108.954 127.077 113.638C130.476 118.33 133.584 125.278 134.003 130.934C134.414 136.59 132.426 142.933 129.55 147.573C126.674 152.212 121.645 156.209 116.737 158.772C111.836 161.335 105.485 163.382 100.128 162.949C94.7787 162.523 89.0109 159.639 84.6178 156.195C80.2173 152.75 75.742 147.438 73.7621 142.291C71.7748 137.143 71.4684 130.62 72.7087 125.308C73.9489 119.989 76.4817 114.258 81.211 110.396C85.9403 106.541 97.1695 103.477 101.084 102.162C104.999 100.847 104.686 102.103 104.716 102.506M110.67 101.236C115.87 102.2 122.258 106.541 125.837 110.837C129.415 115.133 131.276 121.677 132.157 127.019C133.039 132.354 132.972 137.89 131.119 142.858C129.266 147.827 125.441 153.408 121.048 156.815C116.647 160.222 110.379 163.001 104.723 163.307C99.0747 163.606 92.119 161.499 87.1282 158.638C82.1449 155.776 77.1615 151.062 74.8081 146.138C72.4547 141.215 72.3501 134.438 73.015 129.081C73.6799 123.724 75.473 118.465 78.8052 113.982C82.1299 109.507 87.6811 104.224 92.9782 102.215C98.2828 100.205 107.674 101.744 110.595 101.923C113.517 102.11 110.558 102.857 110.498 103.306" stroke="#1E1E1E" stroke-linecap="round"/>
<path d="M223.196 102.153C228.523 102.317 234.881 105.373 239.304 108.698C243.734 112.03 248.015 116.856 249.749 122.146C251.482 127.436 251.28 135.049 249.689 140.435C248.105 145.822 244.407 150.903 240.223 154.466C236.046 158.03 229.965 160.765 224.615 161.833C219.258 162.894 213.192 162.842 208.089 160.862C202.993 158.889 197.226 154.549 193.998 149.976C190.771 145.411 188.791 139.135 188.716 133.457C188.641 127.779 190.606 120.637 193.557 115.922C196.516 111.208 201.342 107.532 206.438 105.171C211.533 102.81 221.051 102.108 224.13 101.772C227.208 101.436 224.802 102.706 224.892 103.161M209.718 104.058C214.671 101.929 221.059 101.353 226.259 102.549C231.451 103.744 236.935 107.502 240.895 111.215C244.855 114.936 248.732 119.411 250.01 124.843C251.28 130.275 250.6 138.53 248.523 143.812C246.446 149.087 241.956 153.428 237.541 156.529C233.133 159.629 227.402 162.065 222.053 162.408C216.711 162.752 210.383 161.303 205.466 158.598C200.55 155.886 195.126 150.806 192.549 146.158C189.979 141.511 189.747 136.184 190.008 130.715C190.27 125.246 191.069 117.91 194.125 113.345C197.188 108.78 205.885 104.932 208.388 103.333C210.891 101.734 208.881 103.132 209.15 103.767" fill="#A5D8FF"/>
<path d="M219.184 101.413C224.518 100.875 230.839 103.557 235.546 106.284C240.253 109.011 244.892 112.956 247.433 117.768C249.965 122.572 251.303 129.49 250.765 135.138C250.227 140.794 247.642 147.391 244.212 151.687C240.791 155.976 235.583 159.069 230.219 160.899C224.854 162.722 217.488 163.835 212.019 162.647C206.557 161.46 201.298 158.023 197.435 153.764C193.565 149.513 189.844 142.617 188.813 137.118C187.782 131.612 189.045 125.702 191.234 120.764C193.423 115.825 196.71 110.588 201.933 107.495C207.163 104.394 218.519 103.004 222.598 102.19C226.67 101.376 226.528 102.093 226.386 102.609M228.202 103.408C233.237 104.446 239.087 108.219 242.771 112.575C246.461 116.931 249.681 123.879 250.331 129.55C250.974 135.221 249.054 141.691 246.648 146.592C244.242 151.485 240.477 156.185 235.904 158.934C231.34 161.684 224.795 163.424 219.251 163.088C213.715 162.752 207.402 160.197 202.657 156.91C197.913 153.622 192.915 148.422 190.808 143.349C188.694 138.284 188.776 131.844 189.994 126.494C191.219 121.145 194.581 115.22 198.137 111.245C201.694 107.278 206.146 104.006 211.332 102.653C216.509 101.294 226.341 102.997 229.21 103.124C232.087 103.259 228.59 102.803 228.56 103.445" stroke="#1E1E1E" stroke-linecap="round"/>
<path d="M21.0677 223.359C25.9165 221.065 33.3654 221.11 38.8791 222.365C44.3929 223.628 50.3475 226.938 54.1504 230.897C57.9532 234.857 60.5757 240.558 61.6963 246.131C62.8096 251.712 62.9889 259.176 60.8596 264.361C58.7228 269.546 53.5676 274.096 48.8906 277.234C44.2061 280.372 38.2142 282.89 32.7826 283.189C27.351 283.487 21.0378 281.694 16.2861 279.035C11.5418 276.382 6.81254 272.049 4.29473 267.245C1.76945 262.448 0.529224 255.724 1.16428 250.233C1.79187 244.742 3.86887 238.862 8.07519 234.289C12.289 229.717 22.4798 224.659 26.4395 222.784C30.3993 220.908 31.6993 222.657 31.8487 223.03M21.2246 222.126C26.193 220.116 33.8211 220.886 39.2901 222.365C44.759 223.844 50.228 226.848 54.0308 231.002C57.8337 235.163 61.1211 241.805 62.0998 247.319C63.086 252.833 61.9504 258.937 59.9182 264.092C57.8935 269.24 54.5015 274.978 49.9291 278.22C45.3567 281.455 38.3487 283.413 32.4838 283.54C26.6263 283.667 19.6108 281.754 14.7694 278.99C9.92806 276.218 5.60967 272.042 3.43554 266.931C1.26888 261.828 1.11945 254.043 1.73957 248.335C2.35968 242.635 3.92117 236.927 7.15622 232.713C10.3913 228.492 18.5872 224.457 21.1499 223.038C23.705 221.611 22.3303 223.531 22.5022 224.158" fill="#B2F2BB"/>
<path d="M43.3247 224.121C48.3753 225.555 53.7695 229.866 56.8776 234.274C59.9856 238.675 61.6741 244.981 61.9655 250.539C62.2644 256.09 61.2483 262.732 58.6632 267.603C56.0782 272.467 51.5058 277.137 46.4477 279.752C41.3897 282.359 33.9633 283.749 28.3225 283.263C22.6817 282.77 16.9438 280.267 12.5955 276.815C8.24723 273.364 3.95874 267.663 2.23288 262.53C0.499549 257.398 0.98518 251.495 2.24035 246.012C3.49552 240.535 5.80414 233.654 9.75643 229.657C13.7087 225.667 19.9622 222.881 25.9541 222.066C31.9386 221.252 42.1069 224.009 45.7081 224.771C49.3017 225.533 47.8075 226.026 47.5311 226.646M16.7196 224.786C21.038 221.67 27.9639 220.228 33.6644 220.871C39.3725 221.513 46.515 224.987 50.9379 228.633C55.3609 232.287 58.454 237.539 60.1874 242.769C61.9207 247.999 62.4586 254.82 61.3454 260.028C60.2247 265.228 57.3333 270.061 53.4931 273.984C49.6529 277.914 43.8477 282.374 38.3041 283.577C32.7604 284.787 25.6104 283.211 20.2236 281.238C14.8443 279.266 9.09149 276.24 6.0208 271.735C2.95759 267.23 2.18805 260.02 1.82196 254.207C1.4484 248.387 1.3438 241.484 3.80184 236.844C6.26735 232.205 14.2541 228.155 16.5926 226.377C18.9311 224.599 17.4742 225.936 17.8328 226.16" stroke="#1E1E1E" stroke-linecap="round"/>
<path d="M146.953 219.195C152.07 217.641 159.811 218.59 165.041 220.548C170.27 222.505 174.985 226.502 178.339 230.94C181.701 235.378 184.593 241.788 185.176 247.16C185.766 252.532 184.391 258.315 181.866 263.156C179.333 268.005 174.917 273.459 170.016 276.223C165.115 278.988 157.935 280.198 152.451 279.757C146.96 279.309 141.581 276.888 137.106 273.549C132.638 270.216 127.752 264.71 125.622 259.742C123.493 254.781 123.276 248.976 124.322 243.776C125.368 238.576 126.877 232.853 131.898 228.549C136.919 224.246 149.575 219.307 154.431 217.955C159.28 216.603 160.939 219.883 161.006 220.436M155.679 218.157C160.886 217.776 166.819 220.749 171.301 224.134C175.792 227.518 180.17 233.234 182.59 238.449C185.019 243.664 186.67 250.268 185.848 255.416C185.026 260.556 181.664 265.308 177.667 269.305C173.67 273.302 167.424 277.755 161.873 279.391C156.322 281.027 149.403 280.803 144.368 279.1C139.339 277.396 134.946 273.698 131.696 269.171C128.439 264.635 125.645 257.478 124.845 251.912C124.046 246.346 124.726 240.496 126.9 235.767C129.081 231.03 133.191 226.413 137.927 223.514C142.664 220.615 152.25 219.136 155.343 218.359C158.428 217.589 156.486 218.411 156.464 218.867" fill="#B2F2BB"/>
<path d="M147.819 219.823C153.026 218.373 160.468 218.725 165.743 220.488C171.025 222.259 176.142 225.979 179.497 230.425C182.852 234.87 185.594 241.572 185.878 247.153C186.161 252.726 183.838 259.129 181.215 263.903C178.586 268.677 174.925 273.093 170.128 275.783C165.324 278.472 158.107 280.273 152.421 280.019C146.736 279.765 140.512 277.598 136.022 274.266C131.532 270.934 127.475 265.136 125.48 260.018C123.485 254.893 122.738 249.028 124.038 243.529C125.338 238.03 128.11 231.239 133.272 227.025C138.443 222.804 150.18 219.352 155.044 218.217C159.907 217.081 162.433 219.651 162.448 220.219M167.431 221.93C172.362 223.536 176.621 228.056 179.587 232.576C182.56 237.096 184.951 243.701 185.257 249.043C185.564 254.385 184.324 260.153 181.417 264.635C178.503 269.111 172.863 273.564 167.79 275.924C162.717 278.285 156.56 279.294 150.972 278.801C145.391 278.3 138.607 276.291 134.274 272.936C129.948 269.581 126.713 263.851 124.994 258.673C123.276 253.503 122.536 247.19 123.948 241.885C125.368 236.588 129.395 230.492 133.497 226.868C137.598 223.245 143.052 221.123 148.566 220.152C154.08 219.18 163.613 220.966 166.587 221.048C169.568 221.13 166.617 220.279 166.422 220.645" stroke="#1E1E1E" stroke-linecap="round"/>
<path d="M269.14 215.156C274.296 214.417 281.565 216.852 286.623 219.594C291.674 222.336 296.784 226.819 299.451 231.6C302.111 236.389 302.993 242.792 302.619 248.321C302.246 253.842 300.415 260.357 297.187 264.765C293.96 269.181 288.551 272.857 283.246 274.784C277.934 276.704 270.687 277.324 265.345 276.316C260.003 275.315 255.005 272.52 251.18 268.755C247.362 264.989 243.678 259.102 242.423 253.738C241.168 248.373 241.953 241.791 243.649 236.561C245.344 231.331 247.795 225.952 252.607 222.351C257.425 218.75 268.647 216.09 272.555 214.954C276.455 213.811 275.924 215.007 276.014 215.507M283.418 216.845C288.267 218.399 292.593 222.814 295.97 227.26C299.347 231.705 303.336 237.973 303.68 243.517C304.016 249.061 300.931 255.703 298.009 260.514C295.088 265.326 290.934 269.719 286.145 272.386C281.356 275.061 274.706 276.869 269.282 276.547C263.851 276.226 257.986 273.791 253.585 270.466C249.177 267.141 244.717 261.739 242.849 256.592C240.981 251.444 241.183 244.854 242.386 239.557C243.589 234.268 246.092 228.59 250.066 224.839C254.041 221.088 260.885 218.481 266.242 217.069C271.598 215.657 279.54 216.075 282.2 216.359C284.867 216.65 282.238 218.19 282.208 218.81" fill="#B2F2BB"/>
<path d="M274.848 215.201C280.22 215.387 287.213 218.906 291.524 222.261C295.827 225.616 298.965 230.315 300.691 235.328C302.417 240.349 303.09 246.886 301.864 252.37C300.631 257.854 297.254 264.354 293.34 268.224C289.417 272.087 283.694 274.507 278.36 275.576C273.018 276.644 266.413 276.532 261.295 274.634C256.178 272.729 251.06 268.598 247.653 264.175C244.246 259.759 241.235 253.707 240.862 248.104C240.495 242.501 242.677 235.328 245.449 230.554C248.221 225.787 251.814 221.88 257.5 219.474C263.193 217.068 275.095 216.239 279.585 216.127C284.075 216.015 284.374 218.361 284.441 218.802M285.188 219.452C290.187 221.514 295.902 225.511 298.853 230.098C301.797 234.686 302.985 241.372 302.865 246.983C302.738 252.602 301.371 259.326 298.106 263.786C294.849 268.247 288.536 271.736 283.283 273.753C278.031 275.77 271.807 276.614 266.592 275.89C261.37 275.172 255.924 273.066 251.986 269.427C248.049 265.781 244.62 259.625 242.961 254.021C241.302 248.418 240.339 241.238 242.049 235.814C243.76 230.382 248.632 224.674 253.211 221.462C257.799 218.241 264 216.829 269.544 216.501C275.095 216.172 283.933 219.056 286.503 219.482C289.066 219.908 285.241 218.891 284.949 219.056" stroke="#1E1E1E" stroke-linecap="round"/>
<path d="M140.371 64.3144C137.002 70.2989 123.591 94.2218 120.236 100.161M140.924 64.0679C137.547 70.0972 123.471 94.5879 119.997 100.61" stroke="#1E1E1E" stroke-linecap="round"/>
<path d="M123.217 82.208C122.933 86.5488 121.574 90.6132 119.997 100.61ZM123.217 82.208C122.709 85.7867 122.014 89.9333 119.997 100.61Z" stroke="#1E1E1E" stroke-linecap="round"/>
<path d="M134.29 88.5811C131.555 91.465 127.745 94.1247 119.997 100.61ZM134.29 88.5811C131.45 90.7477 128.402 93.5494 119.997 100.61Z" stroke="#1E1E1E" stroke-linecap="round"/>
<path d="M180.246 62.2333C184.161 68.823 200.56 94.6809 204.49 101.226M179.147 61.4189C182.943 68.1804 200.164 95.3534 204.191 102.19" stroke="#1E1E1E" stroke-linecap="round"/>
<path d="M189.57 90.5718C194.994 96.3246 200.142 99.6792 204.191 102.19ZM189.57 90.5718C193.985 93.9413 198.655 97.281 204.191 102.19Z" stroke="#1E1E1E" stroke-linecap="round"/>
<path d="M200.463 83.8926C201.666 92.2081 202.63 98.1253 204.191 102.19ZM200.463 83.8926C201.711 89.1225 203.175 94.427 204.191 102.19Z" stroke="#1E1E1E" stroke-linecap="round"/>
<path d="M83.0681 163.294C77.5693 172.671 54.8343 210.348 49.3354 219.829M82.1417 162.54C76.9567 171.976 56.463 210.849 51.024 220.599" stroke="#1E1E1E" stroke-linecap="round"/>
<path d="M53.7514 202.115C53.206 205.738 51.2261 211.618 51.0244 220.599ZM53.7514 202.115C53.8112 207.375 51.8238 212.156 51.0244 220.599Z" stroke="#1E1E1E" stroke-linecap="round"/>
<path d="M64.9956 208.197C61.5888 210.319 56.7623 214.659 51.0244 220.599ZM64.9956 208.197C62.0893 211.955 57.1807 215.16 51.0244 220.599Z" stroke="#1E1E1E" stroke-linecap="round"/>
<path d="M121.172 161.764C125.543 170.648 143.317 206.308 147.65 215.423M120.246 160.808C124.497 169.811 142.824 207.354 147.217 216.402" stroke="#1E1E1E" stroke-linecap="round"/>
<path d="M133.791 203.417C138.132 208.976 143.011 212.876 147.217 216.402ZM133.791 203.417C139.536 208.58 143.705 213.227 147.217 216.402Z" stroke="#1E1E1E" stroke-linecap="round"/>
<path d="M145.274 197.821C145.446 205.449 146.149 211.389 147.217 216.402ZM145.274 197.821C146.627 205.18 146.432 211.956 147.217 216.402Z" stroke="#1E1E1E" stroke-linecap="round"/>
<path d="M236.535 165.585C240.996 172.959 258.03 202 262.371 209.412M235.586 164.726C240.024 172.242 257.373 202.456 261.811 210.174" stroke="#1E1E1E" stroke-linecap="round"/>
<path d="M247.525 198.145C250.424 201.275 252.628 204.286 261.81 210.174ZM247.525 198.145C252.016 201.903 255.064 205.549 261.81 210.174Z" stroke="#1E1E1E" stroke-linecap="round"/>
<path d="M258.605 191.772C258.972 196.374 258.695 200.805 261.811 210.174ZM258.605 191.772C259.823 197.405 259.637 202.912 261.811 210.174Z" stroke="#1E1E1E" stroke-linecap="round"/>
</svg>
